<svg width="10" height="7" viewBox="0 0 10 7" fill="none" xmlns="http://www.w3.org/2000/svg">
<path d="M8.75 0H0.583333C0.428624 0 0.280251 0.0614581 0.170854 0.170854C0.0614581 0.280251 0 0.428624 0 0.583333V6.41667C0 6.57138 0.0614581 6.71975 0.170854 6.82915C0.280251 6.93854 0.428624 7 0.583333 7H8.75C8.90471 7 9.05308 6.93854 9.16248 6.82915C9.27188 6.71975 9.33333 6.57138 9.33333 6.41667V0.583333C9.33333 0.428624 9.27188 0.280251 9.16248 0.170854C9.05308 0.0614581 8.90471 0 8.75 0V0ZM8.30083 6.41667H1.0675L3.10917 4.305L2.68917 3.89958L0.583333 6.07833V1.02667L4.20875 4.63458C4.31804 4.74323 4.46589 4.80421 4.62 4.80421C4.77411 4.80421 4.92196 4.74323 5.03125 4.63458L8.75 0.93625V6.04042L6.60333 3.89375L6.19208 4.305L8.30083 6.41667ZM0.965417 0.583333H8.2775L4.62 4.22042L0.965417 0.583333Z" fill="#CF223D"/>
</svg>
