<svg width="150" height="150" viewBox="0 0 150 150" fill="none" xmlns="http://www.w3.org/2000/svg">
<rect width="150" height="150" fill="#CF223D"/>
<g clip-path="url(#clip0_319_79)">
<path d="M20.0043 92.5934V89.3479C21.5681 90.6071 24.8945 91.5894 27.2963 91.5894C30.3462 91.5894 31.6162 90.4989 31.6162 89.0406C31.6162 84.8128 19.9827 87.5866 19.9827 80.2993C19.9827 77.136 22.4969 74.4443 27.8666 74.4443C30.2166 74.4443 32.6789 75.0632 34.3853 76.1753L33.2362 79.0011C31.6028 78.0245 29.7426 77.4934 27.8406 77.4605C24.8167 77.4605 23.5898 78.6376 23.5898 80.1219C23.5898 84.2978 35.1974 81.5802 35.1974 88.7766C35.1974 91.914 32.6487 94.6056 27.2791 94.6056C24.2508 94.6186 21.6243 93.9955 20.0043 92.5934Z" fill="white"/>
<path d="M58.0066 81.7013C58.0066 86.0287 54.8185 88.6771 49.6735 88.6771H45.2542V94.3373H41.6168V74.7256H49.6735C54.8055 74.7256 58.0066 77.3566 58.0066 81.7013ZM54.3433 81.7013C54.3433 79.2347 52.6931 77.8067 49.505 77.8067H45.2542V85.596H49.505C52.6931 85.596 54.3433 84.168 54.3433 81.7013Z" fill="white"/>
<path d="M76.1588 89.7979H66.3699L64.4389 94.3373H60.6935L69.4932 74.7256H73.0744L81.9129 94.3373H78.133L76.1588 89.7979ZM74.9579 86.9418L71.2644 78.3693L67.6011 86.9418H74.9579Z" fill="white"/>
<path d="M100.018 94.3373L96.0175 88.5949C95.7661 88.6165 95.5137 88.6251 95.2615 88.6208H90.8422V94.3373H87.2048V74.7256H95.2615C100.406 74.7256 103.595 77.3566 103.595 81.7013C103.595 84.6699 102.087 86.8553 99.4302 87.8938L103.932 94.3373H100.018ZM95.093 77.8067H90.8422V85.622H95.093C98.2811 85.622 99.9313 84.168 99.9313 81.7013C99.9313 79.2347 98.2811 77.8067 95.093 77.8067Z" fill="white"/>
<path d="M117.842 86.1282L114.736 89.3089V94.3243H111.098V74.7256H114.736V84.7824L124.412 74.7256H128.495L120.287 83.4929L129.013 94.3373H124.762L117.842 86.1282Z" fill="white"/>
<path d="M24.2724 105.649H20.0648V104.615H29.7501V105.649H25.5425V115.901H24.2767L24.2724 105.649Z" fill="white"/>
<path d="M45.1851 104.615V115.901H43.9367V110.708H36.4503V115.901H35.1845V104.615H36.4503V109.647H43.9367V104.615H45.1851Z" fill="white"/>
<path d="M51.4446 110.258C51.4446 106.969 54.1143 104.52 57.7388 104.52C61.3632 104.52 64.0156 106.956 64.0156 110.258C64.0156 113.559 61.3286 116 57.7388 116C54.1489 116 51.4446 113.542 51.4446 110.258ZM62.7499 110.258C62.7499 107.566 60.6115 105.584 57.7388 105.584C54.866 105.584 52.6931 107.566 52.6931 110.258C52.6931 112.949 54.8531 114.936 57.7388 114.936C60.6245 114.936 62.7499 112.954 62.7499 110.258Z" fill="white"/>
<path d="M70.1714 111.08V104.615H71.4372V111.032C71.4372 113.711 72.772 114.927 75.0961 114.927C77.4203 114.927 78.7724 113.702 78.7724 111.032V104.615H80.0036V111.08C80.0036 114.321 78.159 116 75.0961 116C72.0333 116 70.1714 114.321 70.1714 111.08Z" fill="white"/>
<path d="M95.6676 110.258H96.8814V114.563C95.6271 115.537 94.0744 116.045 92.4881 116C88.8464 116 86.1767 113.564 86.1767 110.258C86.1767 106.952 88.8464 104.52 92.5054 104.52C94.3197 104.52 95.8922 105.069 96.9506 106.147L96.1643 106.904C95.1824 106.005 93.8862 105.531 92.5572 105.584C89.5981 105.584 87.4252 107.566 87.4252 110.258C87.4252 112.949 89.5851 114.936 92.5399 114.936C93.6463 114.974 94.7378 114.672 95.6676 114.07V110.258Z" fill="white"/>
<path d="M113.88 104.615V115.901H112.632V110.708H105.141V115.901H103.88V104.615H105.141V109.647H112.632V104.615H113.88Z" fill="white"/>
<path d="M123.527 105.649H119.319V104.615H129V105.649H124.788V115.901H123.522L123.527 105.649Z" fill="white"/>
<path d="M83.399 48.4537L78.47 48.3671L78.4268 48.1161C78.3333 47.5816 78.0546 47.0972 77.6398 46.7481C77.225 46.3991 76.7006 46.2078 76.1588 46.2078C75.8509 46.2077 75.5461 46.2697 75.2626 46.3901C74.979 46.5105 74.7226 46.687 74.5086 46.9088L74.3229 47.0992L70.8669 44.572L80.9626 41.2183L81.0879 41.4346C81.1963 41.6283 81.3526 41.7909 81.5416 41.9068C81.7307 42.0227 81.9463 42.0881 82.1678 42.0967H82.4184L83.399 48.4537ZM78.6039 48.207L83.2089 48.2849L82.2888 42.2655H82.1722C81.9239 42.2551 81.6822 42.1818 81.4699 42.0523C81.2576 41.9229 81.0816 41.7417 80.9583 41.5255L80.9021 41.4217L71.2212 44.6239L74.297 46.8828L74.3834 46.7919C74.6131 46.5557 74.8879 46.368 75.1914 46.2402C75.4949 46.1123 75.8209 46.0468 76.1502 46.0476C76.7302 46.0471 77.2918 46.2517 77.7359 46.6254C78.1801 46.9991 78.4783 47.5178 78.578 48.0902L78.6039 48.207Z" fill="white"/>
<path d="M81.0187 55.6849L77.4462 50.4487L77.6535 50.2713C77.8853 50.0749 78.0755 49.8339 78.2127 49.5626C78.35 49.2913 78.4316 48.9952 78.4527 48.6918L78.4743 48.4019L83.4076 48.4884L84.4271 55.1612L81.0187 55.6849ZM77.6622 50.492L81.0965 55.5204L84.2414 55.0401L83.2651 48.6312L78.6255 48.549V48.6831C78.6008 49.0085 78.5117 49.3257 78.3634 49.6162C78.215 49.9067 78.0104 50.1647 77.7615 50.3752L77.6622 50.492Z" fill="white"/>
<path d="M53.5095 54.1098L51.9457 49.6959L52.2654 49.6093C52.5938 49.5174 52.8918 49.3394 53.1287 49.0937C53.3656 48.8481 53.5329 48.5436 53.6132 48.2116L53.6694 47.9692L61.1515 48.0991L53.5095 54.1098ZM52.1574 49.8084L53.5873 53.8415L60.6892 48.2549L53.799 48.138L53.7731 48.2505C53.6853 48.6105 53.5033 48.9406 53.246 49.2068C52.9886 49.473 52.665 49.6657 52.3086 49.7651L52.1574 49.8084Z" fill="white"/>
<path d="M70.8453 44.5463L69.1865 43.3303L69.2902 43.1009C69.3555 42.9662 69.3881 42.818 69.3852 42.6682C69.3841 42.405 69.2789 42.1529 69.0927 41.9672C68.9065 41.7815 68.6544 41.6772 68.3916 41.6772C68.1451 41.6766 67.9074 41.7693 67.7264 41.9369L67.5406 42.1057L65.3115 40.4699L71.7482 37.0513L71.8951 37.3152C72.0217 37.5484 72.2091 37.7428 72.4373 37.8777C72.6656 38.0126 72.9261 38.0829 73.191 38.0812C73.3955 38.0805 73.5975 38.037 73.7843 37.9535C73.971 37.8701 74.1382 37.7485 74.2753 37.5965L74.4222 37.4364L81.0144 40.2535L80.9669 40.4959C80.9483 40.5841 80.9382 40.674 80.9366 40.7642C80.9322 40.8175 80.9322 40.871 80.9366 40.9243L80.9669 41.1709L80.9021 41.1926L70.8453 44.5463ZM69.3895 43.2741L70.8756 44.3646L80.7898 41.0714V40.9546C80.7898 40.8983 80.7898 40.8377 80.7898 40.7771C80.7891 40.6768 80.7993 40.5767 80.82 40.4786V40.3617L74.4568 37.6441L74.3876 37.7177C74.2352 37.8864 74.0492 38.0213 73.8417 38.1137C73.6341 38.2061 73.4095 38.254 73.1824 38.2543C72.8889 38.2525 72.6013 38.1711 72.3503 38.0187C72.0993 37.8663 71.8942 37.6486 71.7568 37.3888L71.6877 37.2633L65.6398 40.4872L67.5492 41.8936L67.6356 41.8114C67.8485 41.6175 68.1255 41.5095 68.4132 41.5085C68.7195 41.5085 69.0133 41.6301 69.2303 41.8466C69.4473 42.0632 69.5698 42.3571 69.571 42.6639C69.5697 42.8327 69.5329 42.9993 69.463 43.1529L69.3895 43.2741Z" fill="white"/>
<path d="M65.2813 40.461L65.2381 40.4307L61.3113 37.5443L72.0203 36.7827L65.2813 40.461ZM61.7649 37.6785L65.2942 40.2749L71.2859 37.0034L61.7649 37.6785Z" fill="white"/>
<path d="M70.0159 57.3639L67.9856 53.9972L68.2189 53.8328C68.4226 53.6911 68.5891 53.5022 68.7041 53.2822C68.8192 53.0622 68.8795 52.8176 68.8798 52.5692C68.8802 52.4674 68.8701 52.3659 68.8496 52.2663L68.8064 52.0412L73.9903 49.3799L74.1371 49.6395C74.3367 49.999 74.6285 50.2985 74.9825 50.507C75.3364 50.7155 75.7396 50.8254 76.1502 50.8252C76.5039 50.8263 76.853 50.7448 77.1697 50.5872L77.4073 50.4661L80.9712 55.6892L70.0159 57.3639ZM68.2016 54.0448L70.098 57.1865L80.6991 55.5551L77.3641 50.6651L77.2518 50.7171C76.9129 50.8883 76.5385 50.9772 76.1589 50.9767C75.7183 50.9768 75.2857 50.8589 74.906 50.6352C74.5262 50.4115 74.213 50.0901 73.9989 49.7044L73.9298 49.5833L68.9878 52.1191V52.223C69.0098 52.3327 69.0213 52.4443 69.0224 52.5562C69.0199 52.8305 68.9525 53.1002 68.8255 53.3432C68.6986 53.5862 68.5158 53.7956 68.2923 53.9539L68.2016 54.0448Z" fill="white"/>
<path d="M88.6823 48.5446L83.4336 48.4538L82.4529 42.1055L82.6862 42.0146C82.7455 41.9943 82.8033 41.9697 82.859 41.941L83.0793 41.8242L88.6823 48.5446ZM83.5761 48.2936L88.328 48.3759L83.0491 42.0276L82.9411 42.0839C82.8805 42.1185 82.8169 42.1475 82.751 42.1704L82.6387 42.2093L83.5761 48.2936Z" fill="white"/>
<path d="M73.852 48.285L64.4389 48.1249L61.9593 44.0095L62.1494 43.8407C62.3152 43.6966 62.448 43.5185 62.539 43.3184C62.6299 43.1183 62.6768 42.9009 62.6764 42.681C62.6753 42.521 62.6505 42.362 62.603 42.2093L62.5209 41.967L65.277 40.5L67.5277 42.1487L67.4542 42.3651C67.4189 42.4667 67.3999 42.5734 67.3981 42.681C67.3992 42.9446 67.5042 43.1971 67.6903 43.3835C67.8764 43.5699 68.1285 43.6751 68.3916 43.6763C68.6035 43.6775 68.8099 43.6091 68.9791 43.4815L69.1606 43.3517L74.3056 47.1252L74.163 47.3632C74.0434 47.574 73.956 47.8016 73.9038 48.0383L73.852 48.285ZM64.534 47.9604L73.7224 48.1205V48.0037C73.7773 47.7508 73.8721 47.5083 74.0032 47.2853L74.068 47.1685L69.139 43.5508L69.0526 43.6157C68.8551 43.7621 68.6158 43.841 68.37 43.8407C68.0637 43.8396 67.7704 43.7169 67.5542 43.4995C67.338 43.2822 67.2166 42.9878 67.2166 42.681C67.2177 42.556 67.2381 42.4319 67.2771 42.3132L67.3117 42.2136L65.2424 40.6947L62.698 42.0449L62.7369 42.1617C62.7897 42.3298 62.8174 42.5048 62.8189 42.681C62.8212 42.9267 62.7702 43.1701 62.6695 43.3942C62.5688 43.6183 62.4208 43.8179 62.2358 43.9792L62.145 44.0614L64.534 47.9604Z" fill="white"/>
<path d="M64.4001 48.1249L61.1515 48.0643V44.2432L61.4064 44.2C61.5021 44.1826 61.5961 44.1566 61.6872 44.1221L61.9291 44.0269L64.4001 48.1249ZM61.3156 47.9085L64.1063 47.9561L61.8599 44.2303L61.7476 44.2735C61.647 44.3124 61.5428 44.3413 61.4366 44.3601H61.3156V47.9085Z" fill="white"/>
<path d="M68.802 52.0067L68.6551 51.7644C68.5195 51.541 68.3294 51.3559 68.1027 51.2265C67.876 51.097 67.6201 51.0275 67.3592 51.0244C67.112 51.0242 66.8686 51.0851 66.6507 51.2018L66.3958 51.336L64.4778 48.1597L73.8649 48.3198V48.6097C73.8697 48.7765 73.8943 48.9421 73.9384 49.1031L73.9989 49.3454L68.802 52.0067ZM67.3332 50.8643C67.6246 50.8633 67.9113 50.9377 68.1656 51.0803C68.4198 51.2228 68.6331 51.4286 68.7847 51.6778L68.8538 51.7947L73.8131 49.2588L73.7829 49.1463C73.7398 48.9733 73.7137 48.7965 73.7051 48.6184V48.4799L64.7629 48.3241L66.4477 51.1196L66.5686 51.0547C66.8055 50.9331 67.0671 50.8679 67.3332 50.8643Z" fill="white"/>
<path d="M83.926 59.9429L81.0403 55.7151L84.4358 55.1958L85.2047 56.9917L83.926 59.9429ZM81.3341 55.8362L83.9044 59.6054L85.0406 57.009L84.3494 55.3949L81.3341 55.8362Z" fill="white"/>
<path d="M80.0424 60.7481H79.9992L74.8672 60.4927L70.0721 57.4203L81.0187 55.7456L83.9174 59.9908L80.0424 60.7481ZM74.919 60.3153L80.0295 60.5706L83.628 59.848L80.928 55.8927L70.5041 57.4852L74.919 60.3153Z" fill="white"/>
<path d="M84.4574 55.1525L83.4379 48.4883L88.6995 48.5792L88.2286 52.093L88.004 52.0108C87.8855 51.9717 87.7616 51.9513 87.6368 51.9502C87.3427 51.9513 87.061 52.0689 86.853 52.2772C86.6451 52.4855 86.5277 52.7677 86.5266 53.0623C86.5267 53.3092 86.6105 53.5487 86.7642 53.7417L86.9068 53.9278L84.4574 55.1525ZM83.6279 48.6614L84.587 54.9145L86.6562 53.8759L86.6346 53.8456C86.4595 53.624 86.365 53.3493 86.3668 53.0667C86.3667 52.7268 86.4997 52.4005 86.7371 52.1577C86.9746 51.915 87.2976 51.7752 87.6368 51.7684C87.7839 51.7682 87.93 51.7931 88.0688 51.842H88.1034L88.5354 48.7133L83.6279 48.6614Z" fill="white"/>
<path d="M59.0908 56.8275L58.9569 56.5808C58.8718 56.4253 58.747 56.2952 58.5952 56.2039C58.4433 56.1127 58.27 56.0635 58.0929 56.0616C57.9553 56.0613 57.8192 56.0901 57.6934 56.146C57.5677 56.2019 57.455 56.2837 57.3629 56.3861L57.1858 56.5765L53.5095 54.1402L61.1039 48.1641V55.9534L59.0908 56.8275ZM58.0843 55.9014C58.2919 55.9009 58.4958 55.9565 58.6745 56.0624C58.8531 56.1682 59 56.3204 59.0995 56.5029L59.16 56.6198L60.957 55.8365V48.48L53.8033 54.1056L57.1512 56.3428L57.2333 56.2519C57.3434 56.1379 57.4758 56.048 57.6222 55.9876C57.7687 55.9273 57.926 55.898 58.0843 55.9014Z" fill="white"/>
<path d="M61.1212 48.0645L53.6737 47.939V47.6533C53.664 47.4485 53.6202 47.2466 53.5441 47.0562L53.4448 46.8009L59.7691 43.4385L59.9246 43.6419C60.1587 43.9399 60.4938 44.1416 60.8664 44.2088L61.1212 44.252V48.0645ZM53.8292 47.7659L60.9571 47.887V44.3689H60.8361C60.4248 44.2957 60.0553 44.0721 59.7993 43.7414L59.7216 43.6462L53.6305 46.8831L53.678 47.0042C53.7609 47.2113 53.8091 47.4306 53.8206 47.6533L53.8292 47.7659Z" fill="white"/>
<path d="M53.4059 46.7706L53.2504 46.5716C53.1263 46.4199 52.9808 46.2872 52.8184 46.1778L52.5678 46.009L54.6975 42.837L61.2854 37.5576L65.264 40.4786L62.5252 41.937L62.3654 41.7336C62.2225 41.5486 62.0391 41.3989 61.8294 41.2961C61.6197 41.1934 61.3893 41.1402 61.1558 41.1407C60.7475 41.1407 60.3559 41.3029 60.0668 41.5917C59.7777 41.8805 59.6147 42.2723 59.6136 42.6813C59.6144 42.8427 59.6392 43.0031 59.687 43.1573L59.7691 43.3996L59.7086 43.4342L53.4059 46.7706ZM52.8054 45.9658L52.9264 46.0436C53.0908 46.1659 53.2363 46.3117 53.3583 46.4764L53.4318 46.5716L59.5574 43.3217L59.5229 43.2049C59.4676 43.0359 59.4399 42.8591 59.4408 42.6813C59.4408 42.4574 59.4848 42.2357 59.5703 42.0288C59.6559 41.8219 59.7813 41.634 59.9393 41.4756C60.0974 41.3173 60.285 41.1917 60.4915 41.1061C60.698 41.0204 60.9193 40.9763 61.1428 40.9763C61.4009 40.9788 61.6552 41.0391 61.8869 41.153C62.1187 41.2668 62.322 41.4312 62.482 41.634L62.5554 41.7292L64.9487 40.457L61.2768 37.761L54.8271 42.9539L52.8054 45.9658Z" fill="white"/>
<path d="M61.1515 55.9273V48.0991L64.4217 48.1554L66.357 51.3663L66.2015 51.5351C65.9448 51.818 65.803 52.1869 65.804 52.5693C65.803 52.7727 65.8427 52.9743 65.9207 53.1621L66.033 53.4261L61.1515 55.9273ZM61.3156 48.2679V55.6634L65.8213 53.3525L65.7695 53.2271C65.683 53.0186 65.639 52.795 65.6399 52.5693C65.637 52.1466 65.7909 51.7379 66.0719 51.4226L66.1453 51.3447L64.318 48.3155L61.3156 48.2679Z" fill="white"/>
<path d="M88.3928 52.1319L88.341 52.093L88.8205 48.5316L83.2046 41.7981L83.3213 41.6553C83.5176 41.4095 83.6256 41.1047 83.628 40.7899C83.6269 40.4184 83.479 40.0624 83.2168 39.7997C82.9545 39.537 82.5992 39.3889 82.2283 39.3878C82.0016 39.3883 81.7783 39.4436 81.5775 39.5491C81.3767 39.6546 81.2043 39.8071 81.0749 39.9936L80.9712 40.1451L74.5432 37.3799L74.621 37.1765C74.6894 37.0014 74.7245 36.815 74.7246 36.6269C74.7235 36.2168 74.5601 35.8239 74.2702 35.5343C73.9803 35.2447 73.5875 35.082 73.1781 35.082C72.8056 35.0828 72.4459 35.2187 72.1656 35.4645C71.8853 35.7103 71.7033 36.0494 71.6532 36.4192L71.6273 36.6009L61.2292 37.4405L54.5895 42.7848L52.5117 45.9048L52.3518 45.8529C52.156 45.7922 51.9521 45.7615 51.7471 45.762C51.4846 45.762 51.2247 45.8139 50.9823 45.9146C50.7399 46.0154 50.5197 46.163 50.3343 46.3491C50.1489 46.5352 50.002 46.7561 49.9019 46.9992C49.8019 47.2423 49.7507 47.5027 49.7512 47.7656C49.7488 48.2869 49.9507 48.7883 50.3133 49.1621C50.676 49.536 51.1706 49.7524 51.6909 49.7648H51.8464L53.4145 54.2048L57.0778 56.6497L57.0433 56.8012C57.0217 56.8846 57.0101 56.9703 57.0087 57.0565C57.0098 57.3419 57.1235 57.6153 57.325 57.8172C57.5265 58.019 57.7994 58.1329 58.0844 58.134C58.3667 58.1329 58.6372 58.0207 58.8376 57.8215C59.0381 57.6223 59.1523 57.3522 59.1557 57.0695V56.9223L61.0392 56.1045L61.1083 56.0655L63.2682 59.0125L66.573 60.2544L70.8929 69.4804L73.8132 62.8595L73.8434 62.8812C74.0231 62.9859 74.2273 63.0411 74.4352 63.0413C74.7659 63.0419 75.0842 62.9158 75.3252 62.689C75.5661 62.4621 75.7114 62.1516 75.7312 61.821C75.758 61.6199 75.7323 61.4154 75.6565 61.2273C75.5808 61.0392 75.4577 60.8739 75.2992 60.7478L75.1696 60.6093L80.0641 60.8516L84.0125 60.064L85.343 56.9916L84.587 55.2217L86.963 54.0317L87.0191 54.0663C87.203 54.1868 87.4172 54.2528 87.6369 54.2567C87.9523 54.2567 88.2549 54.1314 88.4784 53.9084C88.7019 53.6853 88.828 53.3827 88.8292 53.0666C88.8305 52.8881 88.792 52.7116 88.7166 52.5499C88.6411 52.3881 88.5305 52.2454 88.3928 52.1319ZM82.7295 42.0924L82.9109 42.0145L83.0707 41.9236L88.5008 48.458L83.4984 48.3714L82.5566 42.14L82.7295 42.0924ZM62.063 44.0267L62.2056 43.9012C62.3789 43.7488 62.5179 43.5612 62.6133 43.3508C62.7086 43.1403 62.7581 42.912 62.7585 42.6809C62.7584 42.512 62.7322 42.3441 62.6807 42.1833L62.6203 42.0058L65.2727 40.5951L67.4326 42.179L67.3808 42.3391C67.3433 42.4491 67.3243 42.5646 67.3246 42.6809C67.3246 42.9659 67.4374 43.2394 67.6382 43.4413C67.839 43.6433 68.1114 43.7573 68.396 43.7584C68.6242 43.7579 68.8464 43.6852 69.031 43.5507L69.1649 43.4512L74.2019 47.1468L74.0983 47.3242C73.9739 47.5413 73.8836 47.7763 73.8304 48.0209L73.7916 48.2027L64.4908 48.0426L62.063 44.0267ZM64.2532 48.0382L61.2292 47.9863V44.3037L61.415 44.2691C61.5171 44.2529 61.6171 44.2253 61.7131 44.1868L61.8902 44.1219L64.2532 48.0382ZM73.757 48.4017V48.6138C73.762 48.7862 73.7867 48.9575 73.8304 49.1244L73.8779 49.3018L68.8107 51.8982L68.7027 51.7208C68.5581 51.4837 68.3549 51.2878 68.1128 51.1522C67.8707 51.0165 67.5977 50.9456 67.3203 50.9462C67.0602 50.9451 66.8037 51.0075 66.573 51.128L66.3872 51.2275L64.5858 48.2416L73.757 48.4017ZM68.2534 53.9018C68.4676 53.7519 68.6426 53.5525 68.7636 53.3205C68.8847 53.0885 68.9482 52.8307 68.9489 52.569C68.9496 52.4629 68.9395 52.3571 68.9187 52.2531L68.8841 52.0843L73.9557 49.4879L74.0594 49.6783C74.2671 50.0501 74.5698 50.3599 74.9365 50.5759C75.3031 50.7919 75.7205 50.9063 76.1459 50.9073C76.5116 50.908 76.8724 50.8236 77.2 50.6606L77.3771 50.5697L80.833 55.6285L70.0332 57.2772L68.0677 54.023L68.2534 53.9018ZM77.5412 50.4659L77.6967 50.3317C77.9357 50.1275 78.1318 49.8778 78.2734 49.5969C78.4151 49.3161 78.4995 49.0098 78.5219 48.696V48.4839L83.304 48.5662L84.3019 55.0962L81.0274 55.5938L77.5412 50.4659ZM80.9972 41.4736C81.113 41.6785 81.2787 41.8506 81.4789 41.9739C81.6791 42.0973 81.9072 42.1678 82.1419 42.179H82.3277L83.317 48.3671L78.5651 48.2849L78.5305 48.1031C78.4347 47.5499 78.1467 47.0484 77.7175 46.6873C77.2882 46.3262 76.7453 46.1287 76.1848 46.1298C75.8664 46.1287 75.5511 46.1921 75.2578 46.3163C74.9645 46.4405 74.6994 46.6229 74.4784 46.8525L74.3402 46.991L71.0787 44.5979L80.9669 41.3135L80.9972 41.4736ZM71.826 37.3799C71.9582 37.6235 72.1536 37.8269 72.3916 37.9686C72.6296 38.1102 72.9013 38.1849 73.1781 38.1848C73.3937 38.1852 73.6069 38.1404 73.8041 38.0531C74.0013 37.9659 74.178 37.8383 74.3229 37.6785L74.4309 37.5573L80.9108 40.3268L80.8719 40.5086C80.8545 40.6013 80.8458 40.6955 80.846 40.7899C80.846 40.8461 80.846 40.9024 80.846 40.9586L80.8676 41.1404L70.8497 44.4681L69.2816 43.3127L69.3593 43.1483C69.4218 43.0124 69.4557 42.8651 69.4587 42.7155C69.4575 42.4305 69.3437 42.1575 69.1421 41.9564C68.9405 41.7553 68.6676 41.6423 68.383 41.6423C68.1159 41.6423 67.8584 41.7427 67.6616 41.9236L67.5234 42.0491L65.4541 40.5302L71.7094 37.2068L71.826 37.3799ZM71.6532 36.9039L65.29 40.3658L61.536 37.6135L71.6532 36.9039ZM52.0494 49.7648L52.2827 49.6999C52.6252 49.6042 52.9359 49.4185 53.1828 49.1621C53.4296 48.9057 53.6036 48.5879 53.6867 48.2416L53.7299 48.0642L60.9139 48.1897L53.5441 53.9884L52.0494 49.7648ZM61.0392 55.9054L59.1255 56.7233L59.0261 56.5415C58.9337 56.3723 58.7975 56.2311 58.6317 56.1329C58.466 56.0347 58.2769 55.983 58.0844 55.9833C57.9357 55.9824 57.7886 56.0128 57.6524 56.0724C57.5163 56.132 57.3941 56.2196 57.2938 56.3295L57.1642 56.4723L53.6651 54.1312L61.0392 48.3325V55.9054ZM61.0392 47.995L53.7515 47.8695V47.6617C53.7403 47.4482 53.6951 47.2378 53.6176 47.0386L53.5441 46.8482L59.7562 43.5464L59.8728 43.6935C60.1194 44.0082 60.4732 44.2208 60.8664 44.2907L61.0521 44.3253L61.0392 47.995ZM59.5142 42.6939C59.5141 42.8628 59.5403 43.0307 59.592 43.1915L59.6525 43.3733L53.4275 46.6794L53.3109 46.5323C53.1865 46.3772 53.0411 46.2403 52.8789 46.1255L52.6931 46L54.7623 42.9103L61.2854 37.6568L65.1128 40.4696L62.5468 41.8327L62.4302 41.6813C62.2786 41.4877 62.0852 41.331 61.8645 41.223C61.6437 41.1151 61.4014 41.0587 61.1558 41.0581C60.9414 41.0559 60.7287 41.0961 60.5299 41.1766C60.3311 41.2571 60.1502 41.3762 59.9976 41.527C59.845 41.6779 59.7237 41.8575 59.6408 42.0556C59.5578 42.2536 59.5148 42.4661 59.5142 42.6809V42.6939ZM61.2422 48.1983L64.3828 48.2503L66.2619 51.366L66.1496 51.4915C65.8749 51.7883 65.7208 52.1772 65.7176 52.582C65.7179 52.7973 65.7604 53.0106 65.8429 53.2095L65.925 53.3998L61.2292 55.8059L61.2422 48.1983ZM66.5946 60.0121L63.4022 58.8653L61.2854 55.9876L66.0373 53.547L66.1539 53.6725C66.3509 53.8885 66.6035 54.046 66.8839 54.1277C67.1643 54.2093 67.4618 54.2121 67.7437 54.1355L67.9035 54.0922L69.8734 57.3551L66.5946 60.0121ZM70.9145 68.9611L66.8235 60.2458L73.2732 61.9335V62.007C73.3017 62.2368 73.3962 62.4533 73.5453 62.6302L73.6101 62.7081L70.9145 68.9611ZM74.5605 60.6742C74.2739 60.6524 73.989 60.7343 73.7575 60.905C73.5261 61.0757 73.3634 61.3239 73.2991 61.6046L73.2732 61.7257L66.8235 60.0857L70.0289 57.5152L75.0184 60.7131L74.5605 60.6742ZM80.0511 60.6742H80.0252L74.9104 60.4189L70.2967 57.4633L80.9799 55.8275L83.7792 59.9299L80.0511 60.6742ZM85.1356 57.0089L83.9261 59.7914L81.1959 55.7929L84.4013 55.3039L85.1356 57.0089ZM88.0473 51.9502C87.9214 51.9039 87.7883 51.8804 87.6541 51.8809C87.3387 51.8821 87.0365 52.0084 86.8139 52.2323C86.5912 52.4561 86.4662 52.7593 86.4662 53.0753C86.4661 53.3402 86.5543 53.5976 86.7167 53.8066L86.7988 53.9148L84.5395 55.0443L83.5502 48.5878L88.6261 48.6743L88.1941 51.9935L88.0473 51.9502Z" fill="white"/>
<path d="M70.9102 69.6925L66.5254 60.3151L63.2294 59.0775L61.0694 56.1695L60.9441 56.2344V56.2127L59.2162 56.9614V57.0522C59.2116 57.3561 59.0883 57.646 58.8726 57.8596C58.6569 58.0733 58.3661 58.1936 58.0627 58.1947C57.9109 58.1952 57.7605 58.1658 57.62 58.108C57.4796 58.0501 57.3519 57.9651 57.2444 57.8578C57.1368 57.7504 57.0515 57.6229 56.9932 57.4824C56.935 57.3419 56.905 57.1913 56.905 57.0392C56.9061 56.9474 56.9177 56.8559 56.9396 56.7666L56.9655 56.6671L53.3497 54.2567L51.7816 49.8428H51.6822C51.141 49.8314 50.626 49.6072 50.2485 49.2185C49.871 48.8298 49.6613 48.3079 49.6648 47.7657C49.666 47.214 49.8853 46.6852 50.2747 46.2951C50.6641 45.905 51.192 45.6853 51.7427 45.6842C51.9566 45.683 52.1694 45.7151 52.3734 45.7794L52.4728 45.814L54.5334 42.7286L61.1947 37.3799H61.2206L71.5538 36.5145V36.4019C71.6069 36.0123 71.7988 35.6549 72.0941 35.3957C72.3894 35.1365 72.7682 34.9928 73.1608 34.9912C73.3745 34.9906 73.5862 35.0323 73.7837 35.1138C73.9813 35.1954 74.1609 35.3151 74.3122 35.4663C74.4635 35.6174 74.5835 35.797 74.6654 35.9946C74.7473 36.1923 74.7894 36.4043 74.7894 36.6183C74.7875 36.8164 74.751 37.0127 74.6814 37.1982L74.6296 37.328L80.941 40.024L81.0101 39.9288C81.1456 39.7302 81.3273 39.5678 81.5396 39.4554C81.7519 39.3431 81.9883 39.2842 82.2283 39.284C82.621 39.2851 82.9972 39.4419 83.2748 39.72C83.5524 39.9981 83.7089 40.375 83.7101 40.7683C83.7115 41.1072 83.5955 41.436 83.3817 41.6987L83.3083 41.7895L88.8896 48.497V48.536L88.4144 52.0498C88.559 52.1704 88.6757 52.3212 88.7563 52.4916C88.8368 52.662 88.8794 52.8479 88.881 53.0364C88.8743 53.3725 88.7378 53.6929 88.5001 53.9302C88.2624 54.1675 87.9421 54.3031 87.6066 54.3087C87.3684 54.307 87.1352 54.2397 86.9327 54.1139L84.6647 55.2477L85.4035 56.9787L84.0427 60.1203H83.9995L80.0425 60.9123L75.3597 60.6786C75.5198 60.8141 75.6433 60.9877 75.7188 61.1836C75.7943 61.3795 75.8194 61.5912 75.7916 61.7994C75.7689 62.1474 75.6164 62.4741 75.3643 62.7146C75.1122 62.9551 74.779 63.0918 74.4309 63.0976C74.2262 63.0957 74.0249 63.0453 73.8434 62.9505L70.9102 69.6925ZM63.333 58.9606L66.6421 60.2026V60.2329L70.8886 69.2987L73.7699 62.7341L73.8779 62.812C74.045 62.9078 74.2341 62.9585 74.4266 62.9591C74.7332 62.9565 75.0275 62.8376 75.2503 62.6265C75.4731 62.4154 75.6079 62.1276 75.6275 61.821C75.6544 61.6331 75.6314 61.4414 75.5609 61.2651C75.4903 61.0889 75.3748 60.9344 75.2257 60.8171L74.5389 60.7608C74.2719 60.7396 74.0062 60.8153 73.7904 60.9743C73.5747 61.1332 73.4232 61.3647 73.3639 61.6263L73.3163 61.8297L68.0029 60.4795L73.3293 61.8729V61.9984C73.3544 62.2121 73.4415 62.4138 73.5799 62.5783L73.6792 62.6995L73.6576 62.7427L70.8842 69.1646L66.6464 60.1377H66.6118L69.99 57.4287L75.1091 60.6656L74.9666 60.5185L80.0511 60.7695L83.939 59.9905L85.235 56.9917L84.4617 55.1871L86.9543 53.9365L87.045 53.9971C87.2209 54.1082 87.4247 54.1667 87.6325 54.1659C87.9262 54.1659 88.208 54.0493 88.416 53.8417C88.6241 53.634 88.7416 53.3523 88.7427 53.0581C88.7442 52.8925 88.7085 52.7288 88.6382 52.579C88.5679 52.4291 88.4648 52.2971 88.3367 52.1926L88.2503 52.1233L88.7341 48.5533L83.1182 41.7939L83.2737 41.5991C83.4629 41.3655 83.5652 41.0734 83.5632 40.7726C83.562 40.4229 83.4229 40.0879 83.176 39.8406C82.9292 39.5933 82.5947 39.4539 82.2456 39.4528C82.0316 39.4529 81.8208 39.505 81.6313 39.6044C81.4417 39.7039 81.279 39.8478 81.157 40.024L81.0144 40.2317L74.4395 37.4189L74.5475 37.1419C74.609 36.9757 74.6411 36.8 74.6426 36.6226C74.6426 36.2336 74.4883 35.8604 74.2136 35.5853C73.939 35.3102 73.5665 35.1557 73.1781 35.1557C72.8244 35.1576 72.4833 35.2874 72.2174 35.5211C71.9515 35.7548 71.7788 36.0768 71.7309 36.4279L71.7007 36.6746L61.2595 37.5141L54.65 42.8368L52.5462 45.9958L52.3259 45.9265C52.1389 45.8659 51.9436 45.8352 51.747 45.8356C51.2391 45.8368 50.7523 46.0397 50.3936 46.3999C50.0348 46.7601 49.8333 47.2482 49.8333 47.757C49.8309 48.2565 50.0241 48.737 50.3714 49.0954C50.7187 49.4539 51.1924 49.6616 51.6909 49.674H51.9025V49.726L53.4664 54.1399L57.1556 56.6065L57.1037 56.8142C57.0833 56.8904 57.0731 56.969 57.0735 57.0479C57.0735 57.3119 57.1782 57.565 57.3645 57.7517C57.5508 57.9383 57.8035 58.0432 58.0671 58.0432C58.3276 58.0421 58.5773 57.9385 58.7623 57.7548C58.9473 57.571 59.0529 57.3219 59.0563 57.0609V56.8532L61.0996 55.9617L63.333 58.9606ZM66.9531 60.354L70.8972 68.7492L73.4891 62.6908L73.4546 62.6519C73.2955 62.4626 73.1949 62.2311 73.1651 61.9854L66.9531 60.354ZM66.9834 60.0338L73.1954 61.6133V61.5744C73.2662 61.2756 73.4405 61.0116 73.6873 60.8294C73.9341 60.6472 74.2373 60.5585 74.5432 60.579H74.6685L70.0116 57.5888L66.9834 60.0338ZM80.0425 60.7478H79.9992L74.8672 60.4925L70.0721 57.4201L81.0187 55.7454L83.9174 59.9905L80.0425 60.7478ZM74.919 60.3151L80.0295 60.5704L83.628 59.8477L80.928 55.8925L70.5041 57.485L74.919 60.3151ZM66.6032 60.0857L63.346 58.913L61.186 55.9747L66.0848 53.4605L66.2447 53.6336C66.4313 53.8386 66.6711 53.9876 66.9373 54.064C67.2035 54.1404 67.4856 54.1412 67.7523 54.0663L67.9726 54.0101L70.0116 57.3854L66.6032 60.0857ZM63.4453 58.7875L66.573 59.9083L69.774 57.3465L67.8733 54.1962L67.7653 54.2221C67.4694 54.303 67.1569 54.3001 66.8625 54.2138C66.5681 54.1275 66.3034 53.9611 66.0978 53.7331L66.0243 53.6552L61.4064 56.0223L63.4453 58.7875ZM83.926 59.9473L81.0403 55.7194L84.4358 55.2001L85.2047 56.996L83.926 59.9473ZM81.3341 55.8406L83.9044 59.6097L85.0406 57.0133L84.3494 55.3992L81.3341 55.8406ZM70.0289 57.3681L67.9985 54.0014L68.2318 53.837C68.4355 53.6953 68.602 53.5065 68.7171 53.2864C68.8322 53.0664 68.8924 52.8218 68.8928 52.5734C68.8932 52.4716 68.8831 52.3701 68.8625 52.2705L68.8193 52.0455L74.0032 49.3841L74.1501 49.6438C74.3496 50.0033 74.6415 50.3027 74.9954 50.5112C75.3494 50.7197 75.7526 50.8296 76.1632 50.8295C76.5168 50.8305 76.8659 50.749 77.1827 50.5915L77.4203 50.4703L80.9842 55.6934L70.0289 57.3681ZM68.2145 54.049L70.111 57.1907L80.6991 55.555L77.3641 50.665L77.2518 50.7169C76.9128 50.8882 76.5384 50.9771 76.1588 50.9766C75.7183 50.9767 75.2857 50.8588 74.9059 50.6351C74.5262 50.4114 74.213 50.09 73.9989 49.7043L73.9298 49.5832L68.9878 52.119V52.2229C69.0098 52.3326 69.0213 52.4442 69.0224 52.5561C69.0199 52.8303 68.9524 53.1001 68.8255 53.3431C68.6986 53.5861 68.5158 53.7954 68.2923 53.9538L68.2145 54.049ZM59.1038 56.8315L58.9699 56.5849C58.8849 56.4293 58.76 56.2992 58.6082 56.208C58.4563 56.1167 58.283 56.0676 58.1059 56.0656C57.9683 56.0653 57.8322 56.0941 57.7064 56.15C57.5806 56.206 57.468 56.2878 57.3759 56.3901L57.1988 56.5805L53.5096 54.1399L61.104 48.1638V55.9531L59.1038 56.8315ZM58.0973 55.9055C58.3049 55.9049 58.5088 55.9606 58.6875 56.0664C58.8661 56.1723 59.013 56.3245 59.1125 56.507L59.173 56.6238L60.97 55.8406V48.484L53.8163 54.1096L57.1642 56.3469L57.2463 56.256C57.3545 56.1428 57.4846 56.053 57.6288 55.9919C57.7729 55.9309 57.9279 55.9 58.0843 55.9011L58.0973 55.9055ZM61.1644 55.9314V48.1032L64.4346 48.1594L66.3699 51.3704L66.2144 51.5391C65.9577 51.8221 65.816 52.191 65.817 52.5734C65.8159 52.7768 65.8556 52.9784 65.9336 53.1662L66.0459 53.4302L61.1644 55.9314ZM61.3286 48.272V55.6675L65.8343 53.3566L65.7824 53.2312C65.696 53.0227 65.6519 52.7991 65.6528 52.5734C65.6499 52.1507 65.8039 51.742 66.0848 51.4266L66.1583 51.3488L64.3309 48.3196L61.3286 48.272ZM81.0317 55.6891L77.4591 50.453L77.6665 50.2755C77.8983 50.0791 78.0884 49.8381 78.2257 49.5669C78.363 49.2956 78.4446 48.9995 78.4657 48.6961L78.4873 48.4061L83.4206 48.4927L84.4401 55.1655L81.0317 55.6891ZM77.6751 50.4962L81.1095 55.5247L84.2544 55.0443L83.2651 48.6311L78.6255 48.5489V48.6831C78.6008 49.0084 78.5117 49.3256 78.3634 49.6161C78.215 49.9066 78.0105 50.1646 77.7615 50.3751L77.6751 50.4962ZM84.4704 55.1698L83.4509 48.5057L88.7125 48.5965L88.2287 52.0931L88.004 52.0108C87.8855 51.9718 87.7616 51.9513 87.6368 51.9502C87.3428 51.9514 87.061 52.0689 86.8531 52.2773C86.6451 52.4856 86.5278 52.7678 86.5266 53.0624C86.5268 53.3093 86.6105 53.5488 86.7642 53.7418L86.9068 53.9279L84.4704 55.1698ZM83.6409 48.6787L84.6 54.9318L86.6692 53.8932L86.6476 53.863C86.4724 53.6414 86.378 53.3666 86.3798 53.084C86.3797 52.7442 86.5127 52.4178 86.7501 52.1751C86.9876 51.9324 87.3106 51.7926 87.6498 51.7858C87.7969 51.7856 87.943 51.8105 88.0818 51.8594H88.1164L88.5483 48.7307L83.6409 48.6787ZM53.5096 54.1096L51.9458 49.6957L52.2654 49.6091C52.5938 49.5172 52.8918 49.3392 53.1287 49.0935C53.3656 48.8479 53.5329 48.5434 53.6132 48.2114L53.6694 47.969L61.1515 48.0989L53.5096 54.1096ZM52.1574 49.8082L53.5873 53.8413L60.6892 48.2547L53.799 48.1378L53.7731 48.2503C53.6853 48.6104 53.5034 48.9404 53.246 49.2066C52.9886 49.4728 52.665 49.6655 52.3086 49.7649L52.1574 49.8082ZM68.8064 52.0065L68.6595 51.7642C68.5239 51.5408 68.3338 51.3557 68.1071 51.2262C67.8803 51.0968 67.6245 51.0273 67.3635 51.0242C67.1164 51.0239 66.873 51.0849 66.655 51.2016L66.4002 51.3358L64.4821 48.1594L73.8693 48.3196V48.6095C73.874 48.7763 73.8987 48.9419 73.9427 49.1028L74.0032 49.3452L68.8064 52.0065ZM67.3333 50.8641C67.6246 50.8631 67.9113 50.9375 68.1656 51.08C68.4199 51.2226 68.6331 51.4284 68.7848 51.6776L68.8539 51.7945L73.8131 49.2586L73.7829 49.1461C73.7398 48.9731 73.7138 48.7963 73.7051 48.6181V48.4797L64.7629 48.3239L66.4477 51.1194L66.5687 51.0545C66.8055 50.9329 67.0672 50.8677 67.3333 50.8641ZM88.6736 48.5446L83.4249 48.4537L82.453 42.1054L82.6862 42.0146C82.7455 41.9943 82.8033 41.9697 82.859 41.941L83.0793 41.8242L88.6736 48.5446ZM83.5675 48.2936L88.3194 48.3758L83.0405 42.0275L82.9325 42.0838C82.8719 42.1185 82.8083 42.1475 82.7424 42.1704L82.6301 42.2093L83.5675 48.2936ZM83.3904 48.4537L78.4614 48.3672L78.4182 48.1162C78.3247 47.5816 78.046 47.0973 77.6312 46.7482C77.2164 46.3992 76.692 46.2078 76.1502 46.2078C75.8423 46.2077 75.5374 46.2697 75.2539 46.3902C74.9704 46.5106 74.714 46.687 74.5 46.9089L74.3142 47.0993L70.8583 44.5721L80.9539 41.2183L81.0792 41.4347C81.1877 41.6284 81.3439 41.791 81.533 41.9069C81.7221 42.0228 81.9377 42.0882 82.1592 42.0968H82.4098L83.3904 48.4537ZM78.5953 48.2071L83.2003 48.285L82.2802 42.2656H82.1635C81.9152 42.2552 81.6736 42.1818 81.4613 42.0524C81.249 41.923 81.0729 41.7417 80.9496 41.5256L80.8935 41.4217L71.2212 44.624L74.297 46.8829L74.3834 46.792C74.6131 46.5557 74.8879 46.3681 75.1914 46.2402C75.4949 46.1124 75.821 46.0469 76.1502 46.0477C76.7302 46.0472 77.2918 46.2518 77.7359 46.6255C78.1801 46.9991 78.4783 47.5179 78.578 48.0902L78.5953 48.2071ZM73.8434 48.285L64.4303 48.1248L61.9507 44.0095L62.1407 43.8407C62.3065 43.6966 62.4394 43.5185 62.5303 43.3184C62.6213 43.1183 62.6682 42.9009 62.6678 42.681C62.6666 42.521 62.6419 42.362 62.5943 42.2093L62.5122 41.967L65.2684 40.5L67.519 42.1487L67.4456 42.3651C67.4102 42.4667 67.3913 42.5734 67.3894 42.681C67.3906 42.9446 67.4956 43.1971 67.6817 43.3835C67.8678 43.5699 68.1198 43.6751 68.383 43.6763C68.5948 43.6775 68.8012 43.6091 68.9705 43.4815L69.1519 43.3517L74.297 47.1252L74.1544 47.3632C74.0348 47.574 73.9474 47.8015 73.8952 48.0383L73.8434 48.285ZM64.5253 47.9604L73.7138 48.1205V48.0037C73.7687 47.7508 73.8635 47.5083 73.9946 47.2853L74.0594 47.1685L69.1304 43.5508L69.044 43.6157C68.8464 43.7621 68.6071 43.841 68.3614 43.8407C68.0551 43.8396 67.7617 43.7169 67.5456 43.4995C67.3294 43.2822 67.208 42.9878 67.208 42.681C67.2091 42.556 67.2295 42.4319 67.2685 42.3132L67.303 42.2136L65.2338 40.6947L62.6894 42.0449L62.7282 42.1617C62.7811 42.3298 62.8087 42.5048 62.8103 42.681C62.8125 42.9267 62.7615 43.1701 62.6609 43.3942C62.5602 43.6183 62.4122 43.8179 62.2271 43.9792L62.1364 44.0614L64.5253 47.9604ZM64.3914 48.1248L61.1428 48.0643V44.2432L61.3977 44.1999C61.4935 44.1826 61.5875 44.1565 61.6785 44.122L61.9204 44.0268L64.3914 48.1248ZM61.307 47.9085L64.0977 47.9561L61.8513 44.2302L61.739 44.2735C61.6383 44.3123 61.5342 44.3413 61.4279 44.36H61.307V47.9085ZM61.1126 48.0643L53.6651 47.9388V47.6532C53.6553 47.4483 53.6115 47.2464 53.5355 47.056L53.4361 46.8007L59.7691 43.4383L59.9246 43.6417C60.1587 43.9397 60.4938 44.1414 60.8664 44.2086L61.1212 44.2518L61.1126 48.0643ZM53.8292 47.7657L60.9571 47.8868V44.3687H60.8361C60.4248 44.2955 60.0553 44.0719 59.7993 43.7412L59.7216 43.646L53.6305 46.8829L53.678 47.004C53.7609 47.2111 53.8091 47.4304 53.8206 47.6532L53.8292 47.7657ZM53.3972 46.7574L53.2417 46.5583C53.1177 46.4066 52.9722 46.274 52.8097 46.1645L52.5592 45.9958L54.6889 42.8238L61.2854 37.5574L65.264 40.4783L62.5252 41.9367L62.3654 41.7333C62.2225 41.5483 62.0392 41.3987 61.8294 41.2959C61.6197 41.1931 61.3893 41.1399 61.1558 41.1404C60.7475 41.1404 60.3559 41.3026 60.0668 41.5914C59.7777 41.8802 59.6147 42.272 59.6136 42.681C59.6144 42.8424 59.6392 43.0028 59.687 43.157L59.7691 43.3993L59.7086 43.4339L53.3972 46.7574ZM52.7968 45.9525L52.9177 46.0304C53.0821 46.1526 53.2277 46.2984 53.3497 46.4631L53.4232 46.5583L59.5574 43.3214L59.5229 43.2046C59.4677 43.0356 59.4399 42.8588 59.4408 42.681C59.4408 42.4571 59.4848 42.2354 59.5704 42.0285C59.6559 41.8217 59.7813 41.6337 59.9393 41.4754C60.0974 41.3171 60.285 41.1915 60.4915 41.1058C60.698 41.0201 60.9193 40.976 61.1428 40.976C61.4009 40.9785 61.6552 41.0389 61.8869 41.1527C62.1187 41.2665 62.322 41.4309 62.482 41.6338L62.5554 41.729L64.9487 40.4567L61.2768 37.7608L54.8271 42.9536L52.7968 45.9525ZM70.8367 44.5331L69.1779 43.3171L69.2816 43.0878C69.3469 42.9531 69.3795 42.8048 69.3766 42.655C69.3755 42.3918 69.2703 42.1398 69.0841 41.954C68.8978 41.7683 68.6458 41.6641 68.383 41.6641C68.1365 41.6634 67.8988 41.7561 67.7177 41.9237L67.532 42.0925L65.3029 40.4567L71.7396 37.0381L71.8865 37.3021C72.0131 37.5352 72.2005 37.7296 72.4287 37.8645C72.657 37.9994 72.9174 38.0697 73.1824 38.068C73.3869 38.0673 73.5889 38.0238 73.7756 37.9403C73.9624 37.8568 74.1296 37.7353 74.2667 37.5833L74.4136 37.4232L81.0058 40.2403L80.9583 40.4827C80.9397 40.5709 80.9295 40.6608 80.928 40.751C80.9236 40.8042 80.9236 40.8578 80.928 40.9111L80.9583 41.1577L80.8935 41.1794L70.8367 44.5331ZM69.3809 43.2609L70.867 44.3514L80.7812 41.0582V40.9414C80.7812 40.8851 80.7812 40.8245 80.7812 40.764C80.7805 40.6636 80.7906 40.5635 80.8114 40.4654V40.3485L74.4482 37.6309L74.379 37.7045C74.2266 37.8732 74.0406 38.0081 73.8331 38.1005C73.6255 38.1929 73.4009 38.2408 73.1738 38.2411C72.8803 38.2393 72.5927 38.1579 72.3417 38.0055C72.0907 37.8531 71.8856 37.6354 71.7482 37.3756L71.6791 37.2501L65.6312 40.474L67.5406 41.8804L67.627 41.7982C67.8398 41.6043 68.1169 41.4964 68.4046 41.4953C68.7109 41.4953 69.0047 41.6169 69.2217 41.8334C69.4387 42.05 69.5612 42.3439 69.5623 42.6507C69.5611 42.8195 69.5243 42.9861 69.4543 43.1397L69.3809 43.2609ZM65.2727 40.4481L65.2295 40.4178L61.3027 37.5314L72.0117 36.7698L65.2727 40.4481ZM61.7563 37.6655L65.2856 40.262L71.2774 36.9905L61.7563 37.6655Z" fill="white"/>
</g>
<defs>
<clipPath id="clip0_319_79">
<rect width="109" height="81" fill="white" transform="translate(20 35)"/>
</clipPath>
</defs>
</svg>
