<svg width="16" height="16" viewBox="0 0 16 16" fill="none" xmlns="http://www.w3.org/2000/svg">
<path d="M7.87993 5.40313C6.54398 5.40313 5.45374 6.58424 5.45374 8.03155C5.45374 9.47885 6.54398 10.66 7.87993 10.66C9.21588 10.66 10.3061 9.47885 10.3061 8.03155C10.3061 6.58424 9.21588 5.40313 7.87993 5.40313ZM15.1567 8.03155C15.1567 6.94311 15.1658 5.86453 15.1093 4.77807C15.0529 3.51612 14.7872 2.39613 13.9354 1.47333C13.0818 0.548549 12.0498 0.262638 10.8849 0.201512C9.88021 0.140386 8.88462 0.150245 7.88175 0.150245C6.87706 0.150245 5.88147 0.140386 4.87859 0.201512C3.71373 0.262638 2.67992 0.550521 1.82812 1.47333C0.974493 2.3981 0.710579 3.51612 0.654157 4.77807C0.597734 5.86651 0.606834 6.94508 0.606834 8.03155C0.606834 9.11801 0.597734 10.1986 0.654157 11.285C0.710579 12.547 0.976313 13.667 1.82812 14.5898C2.68174 15.5145 3.71373 15.8005 4.87859 15.8616C5.88329 15.9227 6.87888 15.9129 7.88175 15.9129C8.88644 15.9129 9.88203 15.9227 10.8849 15.8616C12.0498 15.8005 13.0836 15.5126 13.9354 14.5898C14.789 13.665 15.0529 12.547 15.1093 11.285C15.1676 10.1986 15.1567 9.11998 15.1567 8.03155V8.03155ZM7.87993 12.0757C5.81412 12.0757 4.14692 10.2695 4.14692 8.03155C4.14692 5.79355 5.81412 3.98738 7.87993 3.98738C9.94573 3.98738 11.6129 5.79355 11.6129 8.03155C11.6129 10.2695 9.94573 12.0757 7.87993 12.0757ZM11.7658 4.76624C11.2835 4.76624 10.894 4.34427 10.894 3.82174C10.894 3.29922 11.2835 2.87725 11.7658 2.87725C12.2482 2.87725 12.6377 3.29922 12.6377 3.82174C12.6378 3.94582 12.6153 4.06871 12.5716 4.18337C12.5278 4.29803 12.4636 4.40222 12.3826 4.48995C12.3016 4.57769 12.2055 4.64725 12.0996 4.69466C11.9938 4.74207 11.8804 4.76639 11.7658 4.76624V4.76624Z" fill="#575756"/>
</svg>
