<svg width="15" height="16" viewBox="0 0 15 16" fill="none" xmlns="http://www.w3.org/2000/svg">
<path d="M2.85338 0.00439453C1.28598 0.00439453 0.00314331 1.3941 0.00314331 3.09216V12.674C0.00314331 14.3721 1.28595 15.7613 2.85338 15.7613H11.6982C13.2656 15.7613 14.548 14.3721 14.548 12.674V3.09216C14.548 1.39413 13.2656 0.00439453 11.6982 0.00439453H2.85338ZM3.57026 2.6046C4.3218 2.6046 4.78472 3.13908 4.79901 3.84166C4.79901 4.52873 4.32177 5.07823 3.55573 5.07823H3.54163C2.80439 5.07823 2.32788 4.52876 2.32788 3.84166C2.32788 3.1391 2.81881 2.6046 3.57025 2.6046H3.57026ZM10.0467 5.88835C11.4921 5.88835 12.5756 6.91177 12.5756 9.11103V13.2167H10.379V9.3863C10.379 8.42377 10.0611 7.76708 9.26619 7.76708C8.65935 7.76708 8.29764 8.20969 8.13882 8.63727C8.08081 8.79024 8.06655 9.00389 8.06655 9.21788V13.2167H5.87C5.87 13.2167 5.89883 6.72812 5.87 6.05627H8.067V7.07026C8.3589 6.58237 8.88102 5.88833 10.0467 5.88833V5.88835ZM2.45745 6.05679H4.65399V13.2167H2.45745V6.05679V6.05679Z" fill="#575756"/>
</svg>
