<svg width="13" height="10" viewBox="0 0 13 10" fill="none" xmlns="http://www.w3.org/2000/svg">
<path d="M10.7648 6.40813C10.7048 5.99125 10.3826 5.66625 9.96791 5.56938C8.35591 5.19188 7.95182 4.26438 7.88363 3.23563C7.59776 3.1825 7.0892 3.125 6.22597 3.125C5.36273 3.125 4.85417 3.1825 4.5683 3.23563C4.50012 4.26438 4.09602 5.19188 2.48402 5.56938C2.06929 5.66688 1.74714 5.99125 1.68709 6.40813L1.3762 8.55937C1.26673 9.31687 1.82345 10 2.59787 10H9.85407C10.6279 10 11.1852 9.31687 11.0757 8.55937L10.7648 6.40813ZM6.22597 8.4325C5.35335 8.4325 4.64587 7.7325 4.64587 6.87C4.64587 6.0075 5.35335 5.3075 6.22597 5.3075C7.09859 5.3075 7.80607 6.0075 7.80607 6.87C7.80607 7.7325 7.09796 8.4325 6.22597 8.4325ZM12.45 2.5C12.435 1.5625 10.0467 0.000625 6.22597 0C2.40457 0.000625 0.0162837 1.5625 0.00189636 2.5C-0.0124909 3.4375 0.0150326 4.6575 1.58763 4.45437C3.42732 4.21625 3.3141 3.57437 3.3141 2.65687C3.3141 2.01687 4.81038 1.8625 6.22597 1.8625C7.64155 1.8625 9.1372 2.01687 9.13783 2.65687C9.13783 3.57437 9.02461 4.21625 10.8643 4.45437C12.4363 4.6575 12.4644 3.4375 12.45 2.5Z" fill="#CF223D"/>
</svg>
