<svg width="16" height="15" viewBox="0 0 16 15" fill="none" xmlns="http://www.w3.org/2000/svg">
<path d="M14.0748 0.299072H1.68898C0.756521 0.299072 0 0.997399 0 1.85813V13.2912C0 14.1519 0.756521 14.8503 1.68898 14.8503H14.0748C15.0073 14.8503 15.7638 14.1519 15.7638 13.2912V1.85813C15.7638 0.997399 15.0073 0.299072 14.0748 0.299072ZM12.3542 5.45695C12.3612 5.54789 12.3612 5.64208 12.3612 5.73303C12.3612 8.54907 10.0389 11.7939 5.7953 11.7939C4.48634 11.7939 3.27239 11.4431 2.25197 10.8389C2.43846 10.8584 2.61791 10.8649 2.80792 10.8649C3.88816 10.8649 4.88044 10.5271 5.67215 9.95547C4.65876 9.93598 3.80723 9.3221 3.51518 8.47762C3.87057 8.52634 4.19077 8.52634 4.55672 8.43864C3.50111 8.24051 2.7094 7.38303 2.7094 6.34691V6.32092C3.01553 6.48008 3.37443 6.57752 3.75094 6.59051C3.4344 6.39616 3.17492 6.1325 2.99564 5.82305C2.81635 5.5136 2.72285 5.168 2.72347 4.81708C2.72347 4.42082 2.83607 4.05705 3.03664 3.74199C4.17318 5.0347 5.87975 5.87919 7.79392 5.97014C7.46668 4.52476 8.63841 3.35222 10.0459 3.35222C10.7109 3.35222 11.3091 3.60882 11.7313 4.02456C12.2521 3.93362 12.7518 3.75498 13.1951 3.51138C13.0227 4.00508 12.6603 4.42082 12.1817 4.68392C12.6462 4.63844 13.0966 4.51827 13.5118 4.35262C13.1986 4.77811 12.8046 5.15488 12.3542 5.45695Z" fill="#575756"/>
</svg>
