<svg width="11" height="11" viewBox="0 0 11 11" fill="none" xmlns="http://www.w3.org/2000/svg">
<path d="M7.898 6.6C7.942 6.237 7.975 5.874 7.975 5.5C7.975 5.126 7.942 4.763 7.898 4.4H9.757C9.845 4.752 9.9 5.1205 9.9 5.5C9.9 5.8795 9.845 6.248 9.757 6.6H7.898ZM6.9245 9.658C7.2545 9.0475 7.5075 8.3875 7.6835 7.7H9.306C8.77314 8.61755 7.92776 9.3126 6.9245 9.658ZM6.787 6.6H4.213C4.158 6.237 4.125 5.874 4.125 5.5C4.125 5.126 4.158 4.7575 4.213 4.4H6.787C6.8365 4.7575 6.875 5.126 6.875 5.5C6.875 5.874 6.8365 6.237 6.787 6.6ZM5.5 9.878C5.0435 9.218 4.675 8.4865 4.4495 7.7H6.5505C6.325 8.4865 5.9565 9.218 5.5 9.878ZM3.3 3.3H1.694C2.22137 2.37997 3.06614 1.68382 4.07 1.342C3.74 1.9525 3.4925 2.6125 3.3 3.3ZM1.694 7.7H3.3C3.4925 8.3875 3.74 9.0475 4.07 9.658C3.06824 9.31242 2.22467 8.61725 1.694 7.7ZM1.243 6.6C1.155 6.248 1.1 5.8795 1.1 5.5C1.1 5.1205 1.155 4.752 1.243 4.4H3.102C3.058 4.763 3.025 5.126 3.025 5.5C3.025 5.874 3.058 6.237 3.102 6.6H1.243ZM5.5 1.1165C5.9565 1.7765 6.325 2.5135 6.5505 3.3H4.4495C4.675 2.5135 5.0435 1.7765 5.5 1.1165ZM9.306 3.3H7.6835C7.51136 2.6188 7.25647 1.96124 6.9245 1.342C7.9365 1.6885 8.778 2.387 9.306 3.3ZM5.5 0C2.4585 0 0 2.475 0 5.5C0 6.95869 0.579463 8.35764 1.61091 9.38909C2.12163 9.89981 2.72795 10.3049 3.39524 10.5813C4.06253 10.8577 4.77773 11 5.5 11C6.95869 11 8.35764 10.4205 9.38909 9.38909C10.4205 8.35764 11 6.95869 11 5.5C11 4.77773 10.8577 4.06253 10.5813 3.39524C10.3049 2.72795 9.89981 2.12163 9.38909 1.61091C8.87837 1.10019 8.27205 0.695063 7.60476 0.418663C6.93747 0.142262 6.22227 0 5.5 0Z" fill="#CF223D"/>
</svg>
